<?xml version="1.0" encoding="UTF-8"?>
<svg xmlns="http://www.w3.org/2000/svg" 
    xmlns:xlink="http://www.w3.org/1999/xlink" width="80px" height="36px" viewBox="0 0 80 36" version="1.1">
    <title>logotype-black_PION_RGB_FA</title>
    <desc>Created with Sketch.</desc>
    <g id="setup" stroke="none" stroke-width="1" fill="none" fill-rule="evenodd">
        <g id="8-setup_pion_marketplace_COMP" transform="translate(-50.000000, -31.000000)">
            <g id="header">
                <g id="logotype-black_PION_RGB_FA" transform="translate(50.000000, 31.000000)" fill="#F2F2F2">
                    <path d="M10.8785758,4.54283351 L10.0969971,4.54283351 L9.40240889,8.43263228 L9.33945527,8.43263228 L8.72632519,0 L2.94394006,0 L3.58415927,4.54283351 L0,4.54283351 L0,9.58069695 L4.29419977,9.58069695 L5.096763,15.2754869 L9.83697961,15.2754869 L9.42282112,9.58069695 L10.6597643,9.58069695 C14.5682301,9.58069695 16.5461183,12.1523618 16.5461183,15.3196582 C16.5461183,18.5367689 14.6176392,20.9702768 10.6597643,20.9702768 L0,20.9702768 L0,36 L5.59485966,36 L5.59485966,26.0081402 L10.8785758,26.0081402 C18.0028268,26.0081402 22,21.6203927 22,15.2754869 C22,8.95237478 18.19722,4.54283351 10.8785758,4.54283351" id="Fill-1"/>
                    <polygon id="Fill-3" points="27 36 32 36 32 14 27 14"/>
                    <polygon id="Fill-4" points="26 10 32 10 32 5 26 5"/>
                    <path d="M49.251151,30.018142 C48.5514034,30.7766156 47.3992116,31.4083221 46.0002836,31.4083221 C44.6007884,31.4083221 43.4485966,30.7766156 42.7494162,30.018142 C41.5146009,28.628349 41.2268366,26.5640778 41.2268366,24.5 C41.2268366,22.4357287 41.5146009,20.3714574 42.7494162,18.981858 C43.4485966,18.2233844 44.6007884,17.5916779 46.0002836,17.5916779 C47.3992116,17.5916779 48.5514034,18.2233844 49.251151,18.981858 C50.4853991,20.3714574 50.7739197,22.4357287 50.7739197,24.5 C50.7739197,26.5640778 50.4853991,28.628349 49.251151,30.018142 Z M46.0002836,13 C42.7494162,13 39.9918322,14.5587513 38.5104697,16.4120666 C36.9056447,18.4763379 36,20.7931757 36,24.5 C36,28.2068243 36.9056447,30.5234685 38.5104697,32.5877398 C39.9918322,34.4412487 42.7494162,36 46.0002836,36 C49.251151,36 52.0081678,34.4412487 53.4897193,32.5877398 C55.0943553,30.5234685 56,28.2068243 56,24.5 C56,20.7931757 55.0943553,18.4763379 53.4897193,16.4120666 C52.0081678,14.5587513 49.251151,13 46.0002836,13 Z" id="Fill-5"/>
                    <path d="M72.5892402,14 C69.519637,14 67.3583408,15.2193728 65.9991337,17.5694056 L65.5608651,14.5658999 L61,14.5658999 L61,36 L66.4375938,36 L66.4375938,24.8375816 C66.4762533,22.0090319 67.9411042,18.744327 71.0547257,18.744327 C73.8169667,18.744327 74.5625976,20.3548337 74.5625976,23.1398819 L74.5625976,36 L80,36 L80,21.9218388 C80,17.2206334 77.456702,14 72.5892402,14" id="Fill-6"/>
                </g>
            </g>
        </g>
    </g>
</svg>